HIERARCHY
ROOT hip
{
  OFFSET 0 0 0
  CHANNELS 6 Xposition Yposition Zposition Zrotation Yrotation Xrotation
  JOINT abdomen
  {
    OFFSET 0 20.6881 -0.73152
    CHANNELS 3 Zrotation Xrotation Yrotation
    JOINT chest
    {
      OFFSET 0 11.7043 -0.48768
      CHANNELS 3 Zrotation Xrotation Yrotation
      JOINT neck
      {
        OFFSET 0 22.1894 -2.19456
        CHANNELS 3 Zrotation Xrotation Yrotation
        JOINT head
        {
          OFFSET -0.24384 7.07133 1.2192
          CHANNELS 3 Zrotation Xrotation Yrotation
          JOINT leftEye
          {
            OFFSET 4.14528 8.04674 8.04672
            CHANNELS 3 Zrotation Xrotation Yrotation
            End Site
            {
              OFFSET 1 0 0
            }
          }
          JOINT rightEye
          {
            OFFSET -3.6576 8.04674 8.04672
            CHANNELS 3 Zrotation Xrotation Yrotation
            End Site
            {
              OFFSET 1 0 0
            }
          }
        }
      }
      JOINT rCollar
      {
        OFFSET -2.68224 19.2634 -4.8768
        CHANNELS 3 Zrotation Xrotation Yrotation
        JOINT rShldr
        {
          OFFSET -8.77824 -1.95073 1.46304
          CHANNELS 3 Zrotation Xrotation Yrotation
          JOINT rForeArm
          {
            OFFSET -28.1742 -1.7115 0.48768
            CHANNELS 3 Zrotation Xrotation Yrotation
            JOINT rHand
            {
              OFFSET -22.5879 0.773209 7.07136
              CHANNELS 3 Zrotation Xrotation Yrotation
              JOINT rThumb1
              {
                OFFSET -1.2192 -0.487915 3.41376
                CHANNELS 3 Zrotation Xrotation Yrotation
                JOINT rThumb2
                {
                  OFFSET -3.37035 -0.52449 3.41376
                  CHANNELS 3 Zrotation Xrotation Yrotation
                  End Site
                  {
                    OFFSET -1.78271 -1.18214 1.43049
                  }
                }
              }
              JOINT rIndex1
              {
                OFFSET -7.75947 0.938293 5.60832
                CHANNELS 3 Zrotation Xrotation Yrotation
                JOINT rIndex2
                {
                  OFFSET -2.54057 -0.884171 1.56538
                  CHANNELS 3 Zrotation Xrotation Yrotation
                  End Site
                  {
                    OFFSET -1.62519 -0.234802 1.16502
                  }
                }
              }
              JOINT rMid1
              {
                OFFSET -8.24714 1.18213 3.41376
                CHANNELS 3 Zrotation Xrotation Yrotation
                JOINT rMid2
                {
                  OFFSET -3.10165 -0.590103 1.0647
                  CHANNELS 3 Zrotation Xrotation Yrotation
                  End Site
                  {
                    OFFSET -2.48547 -0.328903 0.83742
                  }
                }
              }
              JOINT rRing1
              {
                OFFSET -8.82822 0.546677 1.51678
                CHANNELS 3 Zrotation Xrotation Yrotation
                JOINT rRing2
                {
                  OFFSET -2.60934 -0.819778 -0.0198488
                  CHANNELS 3 Zrotation Xrotation Yrotation
                  End Site
                  {
                    OFFSET -2.33842 -0.294052 0.168128
                  }
                }
              }
              JOINT rPinky1
              {
                OFFSET -8.27202 -0.0477905 -0.4584
                CHANNELS 3 Zrotation Xrotation Yrotation
                JOINT rPinky2
                {
                  OFFSET -1.82734 -0.647385 -0.700984
                  CHANNELS 3 Zrotation Xrotation Yrotation
                  End Site
                  {
                    OFFSET -1.69225 -0.51767 -0.607171
                  }
                }
              }
            }
          }
        }
      }
      JOINT lCollar
      {
        OFFSET 2.68224 19.2634 -4.8768
        CHANNELS 3 Zrotation Xrotation Yrotation
        JOINT lShldr
        {
          OFFSET 8.77824 -1.95073 1.46304
          CHANNELS 3 Zrotation Xrotation Yrotation
          JOINT lForeArm
          {
            OFFSET 28.1742 -1.7115 0.48768
            CHANNELS 3 Zrotation Xrotation Yrotation
            JOINT lHand
            {
              OFFSET 22.5879 0.773209 7.07136
              CHANNELS 3 Zrotation Xrotation Yrotation
              JOINT lThumb1
              {
                OFFSET 1.2192 -0.487915 3.41376
                CHANNELS 3 Zrotation Xrotation Yrotation
                JOINT lThumb2
                {
                  OFFSET 3.37035 -0.52449 3.41376
                  CHANNELS 3 Zrotation Xrotation Yrotation
                  End Site
                  {
                    OFFSET 1.78271 -1.18214 1.43049
                  }
                }
              }
              JOINT lIndex1
              {
                OFFSET 7.75947 0.938293 5.60832
                CHANNELS 3 Zrotation Xrotation Yrotation
                JOINT lIndex2
                {
                  OFFSET 2.54057 -0.884171 1.56538
                  CHANNELS 3 Zrotation Xrotation Yrotation
                  End Site
                  {
                    OFFSET 1.62519 -0.234802 1.16502
                  }
                }
              }
              JOINT lMid1
              {
                OFFSET 8.24714 1.18213 3.41376
                CHANNELS 3 Zrotation Xrotation Yrotation
                JOINT lMid2
                {
                  OFFSET 3.10165 -0.590103 1.0647
                  CHANNELS 3 Zrotation Xrotation Yrotation
                  End Site
                  {
                    OFFSET 2.48547 -0.328903 0.83742
                  }
                }
              }
              JOINT lRing1
              {
                OFFSET 8.82822 0.546677 1.51678
                CHANNELS 3 Zrotation Xrotation Yrotation
                JOINT lRing2
                {
                  OFFSET 2.60934 -0.819778 -0.0198488
                  CHANNELS 3 Zrotation Xrotation Yrotation
                  End Site
                  {
                    OFFSET 2.33842 -0.294052 0.168128
                  }
                }
              }
              JOINT lPinky1
              {
                OFFSET 8.27202 -0.0477905 -0.4584
                CHANNELS 3 Zrotation Xrotation Yrotation
                JOINT lPinky2
                {
                  OFFSET 1.82734 -0.647385 -0.700984
                  CHANNELS 3 Zrotation Xrotation Yrotation
                  End Site
                  {
                    OFFSET 1.69225 -0.51767 -0.607171
                  }
                }
              }
            }
          }
        }
      }
    }
  }
  JOINT rButtock
  {
    OFFSET -8.77824 4.35084 1.2192
    CHANNELS 3 Zrotation Xrotation Yrotation
    JOINT rThigh
    {
      OFFSET 0 -1.70687 -2.19456
      CHANNELS 3 Zrotation Xrotation Yrotation
      JOINT rShin
      {
        OFFSET 0 -36.8199 0.73152
        CHANNELS 3 Zrotation Xrotation Yrotation
        JOINT rFoot
        {
          OFFSET 0.73152 -45.1104 -5.12064
          CHANNELS 3 Zrotation Xrotation Yrotation
          End Site
          {
            OFFSET -1.1221 -3.69964 12.103
          }
        }
      }
    }
  }
  JOINT lButtock
  {
    OFFSET 8.77824 4.35084 1.2192
    CHANNELS 3 Zrotation Xrotation Yrotation
    JOINT lThigh
    {
      OFFSET 0 -1.70687 -2.19456
      CHANNELS 3 Zrotation Xrotation Yrotation
      JOINT lShin
      {
        OFFSET 0 -36.8199 0.73152
        CHANNELS 3 Zrotation Xrotation Yrotation
        JOINT lFoot
        {
          OFFSET -0.73152 -45.1104 -5.12064
          CHANNELS 3 Zrotation Xrotation Yrotation
          End Site
          {
            OFFSET 1.1221 -3.69964 12.103
          }
        }
      }
    }
  }
}
MOTION
Frames:	5
Frame Time:	0.00833333
-0.41910000000000003 55.95099999999999 232.704 9.253801 13.175802 7.215936 -16.778274 8.417329 -69.634623 11.66086 3.19544 46.44157 -16.177289 37.973374 -94.611482 45.265396 19.057974 24.254268 0.0002 0.0 0.001099 0.0002 0.0 0.001099 -2.746327 13.830264 3.439435 -114.002414 -16.630869 164.669308 -77.319854 -40.853762 -107.647455 40.516537 -58.925578 29.432856 -171.603001 -9.286306 89.950661 169.118616 -26.317604 97.634093 2.32564 -3.86778 -1.260071 -65.474789 48.476147 50.844118 -141.109475 35.60161 129.175054 -42.318949 58.333865 36.553278 -71.538494 -72.140748 -88.496166 -150.964503 -1.65901 176.533063 -25.780383 -38.273462 -24.83506 10.899367 24.648173 5.564848 9.65077 34.836409 -11.198408 110.397628 -19.468938 -138.920585 8.170084 -41.604833 70.139371 -143.770603 -49.892425 -129.130848 121.364665 30.329804 -71.958106 27.571512 -16.789542 -28.969016 13.870867 18.815212 -9.290457 -0.553432 11.951962 -1.897367 160.672466 -6.667611 -143.246501 144.932295 36.103823 -131.775344 145.099906 -1.438543 178.674852 -11.334561 13.755066 7.376852 126.797336 -26.618555 124.511417 -47.365163 80.626073 10.111861 0.004464 9.4e-05 0.004464 -66.728928 -62.543687 110.888241 58.73368 -67.826743 -174.791492 -38.609678 -72.099238 60.517556 0.004464 9.4e-05 0.004464 4.901609 15.528835 -73.155201 -41.315945 3.909401 -92.199641 157.354224 11.322148 138.306287
-0.3939 55.9614 232.704 9.230932 13.196123 7.232404 -16.724292 8.422929 -69.599811 11.677704 3.192099 46.35984 6.446625 30.775413 75.68713 -39.22641 -2.413742 -144.802893 -0.002645 0.0 -0.001217 -0.002645 0.0 -0.001217 -155.417264 -2.951299 161.718946 140.475921 -11.145659 170.848695 -5.617136 1.446805 35.301913 -4.105803 21.686734 1.303041 6.463397 -6.452785 -0.635291 -124.176336 -11.784503 112.056141 1.506215 -2.484777 -0.828379 -12.96978 28.92413 10.488078 6.534498 -20.414699 -2.718025 -34.446698 55.14393 28.976763 0.001097 -0.018584 -0.005374 10.77087 -6.942842 -0.912069 0.097928 0.258223 0.09265 2.500798 0.04654 0.029102 -4.261177 -46.008867 8.90977 85.318567 -28.446187 135.93054 178.300577 9.541783 151.004555 9.329336 43.62865 -4.140883 -5.512826 -5.499882 0.586098 155.878864 -70.783223 -123.405715 108.428976 34.159656 -91.741248 164.048269 -10.584707 -116.16911 -173.121213 -66.297546 -137.61214 88.774401 63.804809 -80.315819 72.134355 72.973363 -89.990379 73.40932 -82.478708 90.505138 132.780988 -17.596819 130.287141 152.731932 29.781311 145.292293 0.009165 0.001278 0.004583 -64.393376 -63.263554 -180.0 -87.084899 -37.319942 -72.034688 -154.093068 21.519112 -165.827467 -0.002014 0.000776 -0.001007 4.077613 16.282734 -14.265618 -21.099698 34.77234 -128.555036 140.880196 9.980957 150.778776
-0.36970000000000003 55.9701 232.712 9.175417 13.198899 7.216172 -19.002403 9.932964 2.591143 9.085208 -11.685908 -24.320764 2.754057 42.853699 154.621197 -24.345668 46.204727 148.035332 -0.001631 -0.0 0.001269 -0.001631 -0.0 0.001269 -13.745133 42.431149 15.570512 72.791213 -18.331038 39.068843 4.633515 9.876257 35.58597 -8.555063 34.236332 2.390526 12.712781 -12.67423 -0.552448 8.380565 -22.949949 -16.787314 -152.811612 -19.872884 121.574134 63.683435 -64.530446 14.169706 -0.05703 0.168054 0.031261 29.357734 -60.225141 6.397323 -145.099521 -1.521001 -178.649949 -156.371016 15.315482 178.978468 6.230508 18.789192 5.573199 -24.604732 -41.272707 -24.946878 130.420494 54.549814 -134.288951 10.664872 -23.018287 -65.550926 -169.395835 -58.391433 162.869994 12.134084 49.377272 -5.429324 172.746213 -10.423413 -89.930404 -118.000704 -61.756059 -86.971789 50.387269 40.825168 -40.025485 -152.482216 -54.940182 -93.405989 82.840218 61.109712 -74.532584 167.738548 -19.073247 -144.090391 0.021039 -1.726217 0.541376 155.794444 -9.925302 -173.046983 75.778952 -51.669607 74.249154 159.89174 55.880707 148.514466 0.002678 0.00016 0.001339 -64.274678 -61.05401 -0.0 75.725818 29.144882 -4.339598 25.496938 -79.337193 -66.347748 0.007943 0.00068 0.007943 3.539913 14.013188 165.668937 20.049148 -38.576766 31.841037 -62.828639 -1.46758 -150.758065
-0.3702 55.973600000000005 232.701 9.149034 13.15225 7.287976 -21.148134 7.928597 79.518491 -7.191746 -13.20752 -103.051091 3.690959 27.442029 53.474045 -31.861432 -16.85662 -125.902801 -0.000728 -0.0 0.003308 -0.00028 -0.0 0.004685 -157.760337 -21.736354 165.39865 -44.958778 -22.273624 -9.533503 3.395623 11.779677 -68.305337 161.033226 -32.122271 140.63836 11.110484 -11.091965 -0.639896 -137.352536 -36.076669 123.19586 -158.403575 -30.155753 122.603936 177.160152 -51.111455 111.136867 -158.521169 -0.192568 142.144101 -13.620793 36.290544 11.088955 -0.000506 -0.018269 -0.00724 10.330724 0.039812 -0.057634 -25.538996 -38.087819 -24.597043 -80.791745 -54.105394 -81.106394 155.548785 -3.804362 -161.89958 -128.566252 0.779162 -177.12545 -168.627967 -1.185515 -115.184716 -163.711658 -20.558465 -145.042585 -93.028216 -51.083794 -40.501214 86.330061 37.970179 -46.379611 27.609404 30.765964 -20.254865 14.126142 27.027182 -8.034739 160.826472 -7.141414 -143.317647 1.400258 12.594401 -2.556702 -0.003869 1.853445 -0.582182 -10.233941 -58.319523 8.065178 112.782582 -40.024354 110.811182 152.177132 29.727156 145.72345 0.016005 -0.000205 0.012004 -61.942341 -61.81619 -64.835545 -73.346488 75.227555 -89.66944 -89.895657 26.276395 -174.96274 -179.980251 75.74933 -0.017425 -78.0468 84.990723 -180.0 -41.712107 0.045758 -89.681046 -77.330361 -8.754603 -157.594246
-0.42700000000000005 55.9569 232.69299999999998 8.746238 13.064798 7.321471 -16.280995 7.428671 -90.031917 9.024578 6.928822 66.49274 -14.286179 40.778158 -113.911463 41.935982 31.124373 39.192473 -0.00279 0.0 -0.002789 -0.00292 -0.0 0.001393 -0.273312 1.60682 0.360733 60.770235 18.493802 4.972366 90.161264 -35.540789 72.890525 -161.715266 57.950279 138.299759 -115.53433 32.702128 68.304702 93.871754 -50.240719 49.131226 54.897244 -68.588788 11.308439 -83.016776 51.630749 69.589917 14.567256 -44.052976 -2.824196 -42.245092 58.500978 36.143824 -145.123954 1.121412 -179.480503 -151.125937 -32.041483 -173.806456 12.988101 44.344324 10.762022 28.841828 75.252948 5.023123 80.166252 68.371611 -83.260845 -63.471109 -14.634785 -81.477511 -149.266722 4.538402 -127.286604 -173.082327 6.481389 -149.593104 -3.050818 -3.03256 0.389497 136.882519 -38.67018 -120.070414 27.610444 30.765341 -20.255449 1.087971 12.467257 -1.325783 -34.587817 -70.943797 -9.314756 16.44651 40.0549 -13.061534 -0.004197 0.876336 -0.276103 155.519135 -1.615393 -172.045144 -32.012061 83.320813 -6.233995 85.87298 -52.987205 84.309302 179.998567 75.750725 0.001264 155.37727 -2.356442 -180.0 6.788773 -83.533366 -56.400105 -98.840682 -52.936211 170.733247 -0.001146 -0.000579 0.001473 3.654509 16.016125 17.252457 0.05268 30.202097 -64.493102 176.364999 0.037989 -95.506312
